<?xml version="1.0" standalone="no"?>
<svg xmlns="http://www.w3.org/2000/svg" width="120" height="120"><rect width="120" height="120" opacity="0"></rect><g><path d="M49.56 64.44Q55.08 64.44 59.7 61.74Q64.32 59.04 67.08 54.42Q69.84 49.8 69.84 44.28Q69.84 38.76 67.08 34.14Q64.32 29.52 59.7 26.82Q55.08 24.12 49.56 24.12Q44.04 24.12 39.42 26.82Q34.8 29.52 32.1 34.14Q29.4 38.76 29.4 44.28Q29.4 49.8 32.1 54.42Q34.8 59.04 39.42 61.74Q44.04 64.44 49.56 64.44ZM49.56 31.56Q53.04 31.56 55.98 33.24Q58.92 34.92 60.6 37.86Q62.28 40.8 62.28 44.28Q62.28 47.76 60.6 50.64Q58.92 53.52 55.98 55.26Q53.04 57 49.56 57Q44.4 57 40.68 53.28Q36.96 49.56 36.96 44.28Q36.96 40.8 38.64 37.86Q40.32 34.92 43.2 33.24Q46.08 31.56 49.56 31.56ZM52.92 75.72Q59.4 75.72 65.94 79.02Q72.48 82.32 76.68 87.9Q80.88 93.48 80.88 99.96Q80.88 101.28 79.92 102.24Q78.96 103.2 77.64 103.2L21.48 103.2Q20.16 103.2 19.2 102.24Q18.24 101.28 18.24 99.96Q18.24 93.48 22.44 87.9Q26.64 82.32 33.18 79.02Q39.72 75.72 46.2 75.72L52.92 75.72ZM77.64 110.64Q82.08 110.64 85.26 107.52Q88.44 104.4 88.44 99.96Q88.44 91.32 83.16 84Q77.88 76.68 69.6 72.48Q61.32 68.28 52.92 68.28L46.32 68.28Q37.92 68.28 29.64 72.48Q21.36 76.68 16.08 84Q10.8 91.32 10.8 99.96Q10.8 104.4 13.92 107.52Q17.04 110.64 21.48 110.64L77.64 110.64Z" fill="rgba(229,229,229,1)"></path><path d="M74.64 53.52Q73.8 55.56 72.72 57.48Q71.64 59.4 70.32 60.96L73.8 60.96Q80.28 60.96 86.82 64.2Q93.36 67.44 97.56 73.02Q101.76 78.6 101.76 85.2Q101.76 86.52 100.8 87.48Q99.84 88.44 98.52 88.44L92.64 88.44Q93.96 91.8 94.56 95.88L98.52 95.88Q102.96 95.88 106.08 92.76Q109.2 89.64 109.2 85.2Q109.2 76.68 104.1 69.48Q99 62.28 90.96 58.02Q82.92 53.76 74.64 53.52ZM61.44 20.52Q63.24 18.72 65.58 17.76Q67.92 16.8 70.44 16.8Q73.92 16.8 76.8 18.48Q79.68 20.16 81.42 23.1Q83.16 26.04 83.16 29.4Q83.16 33.12 81.18 36.18Q79.2 39.24 75.96 40.8L75.96 41.28Q76.32 44.16 76.32 45.54Q76.32 46.92 75.84 48.84Q80.04 47.64 83.4 44.82Q86.76 42 88.68 37.98Q90.6 33.96 90.6 29.4Q90.6 24 87.84 19.38Q85.08 14.76 80.46 12.06Q75.84 9.36 70.32 9.36Q65.28 9.36 60.9 11.7Q56.52 14.04 53.76 18Q57 18.6 59.4 19.56Q60.48 20.04 61.44 20.52Z" fill="rgba(229,229,229,1)"></path></g></svg>